# xmcd
#
# Track frame offsets:
#	150
#	11850
#	24787
#	37498
#	47137
#	58650
#	72195
#	83138
#	94200
#	103657
#	113621
#	123658
#	134551
#	147668
#	156623
#	166049
#	176159
#	188714
#	200730
#	211463
#	223709
#	232425
#	243745
#	254925
#	264689
#	276413
#	288742
#	297435
#
# Disc length: 4132 seconds
#
# Revision: 1
# Processed by: cddbd v1.4PL0 Copyright (c) Steve Scherf et al.
# Submitted via: audiograbber 1.82.02
#
DISCID=de10221c
DTITLE=Jerry Lee Lewis - Another Place Another Time/She Even Woke Me Up To Say 
DTITLE=Goodbye
DYEAR=2002
DGENRE=Country
TTITLE0=What's Made Milwaukee Famous (Has Made A Loser Out Of Me)
TTITLE1=Play Me A Song I Can Cry To
TTITLE2=On The Back Row
TTITLE3=Walking The Floor Over You
TTITLE4=All Night Long
TTITLE5=I'm A Lonesome Fugitive
TTITLE6=Another Place Another Time
TTITLE7=Break My Mind
TTITLE8=Before The Next Teardrop
TTITLE9=All The Good Is Gone
TTITLE10=We Live In Two Different Worlds
TTITLE11=Once More With Feeling
TTITLE12=Workin' Man Blues
TTITLE13=Waiting For A Train
TTITLE14=Brown-Eyed Handsome Man
TTITLE15=My Only Claim To Fame
TTITLE16=Since I Met You Baby
TTITLE17=She Even Woke Me Up To Say Goodbye
TTITLE18=Wine Me Up
TTITLE19=When The Grass Grows Over Me
TTITLE20=You Went Out Of You Way (To Walk Over Me)
TTITLE21=Echoes
TTITLE22=She Still Comes Around (To Love What's Of Me)
TTITLE23=Today I Started Loving You Again
TTITLE24=There Stands The Glass
TTITLE25=Listen, They're Playing My Song
TTITLE26=Let's Talk About Us
TTITLE27=To Make Love Sweeter For You
EXTD=
EXTT0=
EXTT1=
EXTT2=
EXTT3=
EXTT4=
EXTT5=
EXTT6=
EXTT7=
EXTT8=
EXTT9=
EXTT10=
EXTT11=
EXTT12=
EXTT13=
EXTT14=
EXTT15=
EXTT16=
EXTT17=
EXTT18=
EXTT19=
EXTT20=
EXTT21=
EXTT22=
EXTT23=
EXTT24=
EXTT25=
EXTT26=
EXTT27=
PLAYORDER=
